<mxfile host="65bd71144e">
    <diagram id="iz6pGSYL20rfE0JszmgT" name="Page-1">
        <mxGraphModel dx="1155" dy="589" grid="1" gridSize="10" guides="1" tooltips="1" connect="1" arrows="1" fold="1" page="1" pageScale="1" pageWidth="850" pageHeight="1100" math="0" shadow="0">
            <root>
                <mxCell id="0"/>
                <mxCell id="1" parent="0"/>
                <mxCell id="2" value="Breathing Activity&lt;br&gt;&lt;br&gt;int _secondsChoice&lt;br&gt;&lt;br&gt;TimeBreathing()&lt;br&gt;Animation&lt;br&gt;Time&lt;br&gt;While Loop" style="rounded=1;whiteSpace=wrap;html=1;" vertex="1" parent="1">
                    <mxGeometry x="330" y="200" width="140" height="120" as="geometry"/>
                </mxCell>
                <mxCell id="3" value="Reflecting Activity&lt;br&gt;&lt;br&gt;int _seconds&amp;nbsp;&lt;br&gt;string prompt&lt;br&gt;&lt;br&gt;&lt;br&gt;RandomPrompt()&lt;br&gt;&lt;br&gt;Time&lt;br&gt;Animation" style="rounded=1;whiteSpace=wrap;html=1;" vertex="1" parent="1">
                    <mxGeometry x="340" y="350" width="130" height="160" as="geometry"/>
                </mxCell>
                <mxCell id="4" value="Listing Activity&lt;br&gt;int _seconds&lt;br&gt;List entries&lt;br&gt;&lt;br&gt;Random Prompt()&lt;br&gt;DisplayListing()" style="rounded=1;whiteSpace=wrap;html=1;" vertex="1" parent="1">
                    <mxGeometry x="337.5" y="530" width="135" height="110" as="geometry"/>
                </mxCell>
                <mxCell id="5" value="Main" style="rounded=1;whiteSpace=wrap;html=1;" vertex="1" parent="1">
                    <mxGeometry x="340" y="130" width="120" height="60" as="geometry"/>
                </mxCell>
            </root>
        </mxGraphModel>
    </diagram>
</mxfile>